<svg id="head_1_" xmlns="http://www.w3.org/2000/svg" viewBox="0 0 170 190"><style>.st0{fill:#8BA4E8;} .st1{fill:#AABFF2;} .st2{fill:#333132;} .st3{fill:#B3C9F4;} .st4{fill:#CBDAF7;} .st5{display:none;fill:#ABDBBB;} .st6{display:none;fill:none;stroke:#E4E9F7;stroke-width:1.2744;stroke-linecap:round;stroke-linejoin:round;stroke-miterlimit:10;} .st7{display:none;fill:#E4E9F7;}</style><g id="head"><path class="st0" d="M61.3 73h41.9c7.5 0 13.6-6.1 13.6-13.6V34.3c0-7.5-6.1-13.6-13.6-13.6H61.3c-7.5 0-13.6 6.1-13.6 13.6v25.1c.1 7.5 6.2 13.6 13.6 13.6z"/><path class="st1" d="M70.2 73H112c7.5 0 13.6-6.1 13.6-13.6V34.3c0-7.5-6.1-13.6-13.6-13.6H70.2c-7.5 0-13.6 6.1-13.6 13.6v25.1c0 7.5 6.1 13.6 13.6 13.6z"/><path class="st1" d="M51.8 56.3h10V31.9h-10c-5 0-9.1 4.1-9.1 9.1v6.3c.1 5 4.1 9 9.1 9z"/><path class="st0" d="M61.8 50.9V37.3c0-.5-.4-.9-.9-.9h-9.1c-2.5 0-4.5 2-4.5 4.5v6.3c0 2.5 2 4.5 4.5 4.5h9.1c.5.1.9-.3.9-.8z"/><path class="st2" d="M77.6 48.4c2.5 0 4.5-2 4.5-4.5s-2-4.5-4.5-4.5-4.5 2-4.5 4.5 2 4.5 4.5 4.5z"/><g><path class="st3" d="M126 34.3H95.3c-3 0-5.4 2.4-5.4 5.4V46c0 7.5 6.1 13.6 13.6 13.6h14.4c7.5 0 13.6-6.1 13.6-13.6v-6.3c-.1-3-2.5-5.4-5.5-5.4z"/><path class="st4" d="M109.7 59.6h8.1c7.5 0 13.6-6.1 13.6-13.6v-6.3c0-3-2.4-5.4-5.4-5.4h-24.4c-3 0-5.4 2.4-5.4 5.4V46c-.1 7.5 6 13.6 13.5 13.6z"/><path class="st1" d="M113.3 49.4h-6c-1.2 0-2.3 1-2.3 2.3 0 1.2 1 2.3 2.3 2.3h6c1.2 0 2.3-1 2.3-2.3 0-1.3-1-2.3-2.3-2.3zM124 49.4h-1.4.5-1.4c-1.2 0-2.3 1-2.3 2.3 0 1.2 1 2.3 2.3 2.3h1.4-.5 1.4c1.2 0 2.3-1 2.3-2.3 0-1.3-1.1-2.3-2.3-2.3z"/></g><g><path class="st0" d="M110.9 65h3.6c.8 0 1.5-.7 1.5-1.5s-.7-1.5-1.5-1.5h-3.6c-.8 0-1.5.7-1.5 1.5s.6 1.5 1.5 1.5z"/></g><path class="st5" d="M128 24.8c0-.1 0-.1 0 0l-.1-.1c0-.2.1-.5.1-.7 0-.2 0-.3-.1-.4.1-.5-.1-1-.6-1.3-.1-.1-.2-.1-.3-.2.2-1.3.1-2.5-.5-3.8-.3-.7-.6-1.3-1-1.9-.3-.5-1.1-1.4-1.1-2-.1-.8-.8-1.2-1.4-1.2-.1-1.1-.5-2.1-1.2-3.1-.9-1.2-1.9-2.2-3-3.2-.6-.8-1.5-1.6-2.4-2.2-2.9-2.7-6.3-4.9-10.3-6.8-4.1-2-8.5-2.8-13-3.4-3.1-.4-8.2-1.6-11.1 0-.6.3-.7.9-.5 1.5C64-3.5 50.9 8.3 44.6 24.1l-.6 1.8c-.8.5-1.5 1-2.2 1.6-2.2 1.2-3.8 3.2-4.7 5.8-.8 2.2-1.2 4.8-.9 7.1.2 1.7.9 3 1.7 4.4.9 2.6 2.5 4.8 4.6 6.3 1.5 8.2 4.8 15.9 9.8 21.6.3.3.6.4 1 .4.1.1.3.2.6.3.6.1 1.3.2 1.9.2.3 3 .6 5.7-.7 8.5-.9 1.9-1.8 3.6-2.1 5.6-.1.7.3 1.2.9 1.5l.1.1c1.6 1.3 3.9 2.4 6 2.3-.2 1.6 2.2 2.3 2.5.7.6-4 2.9-7.6 3.4-11.6.4-3.3-.4-6.3-1.2-9.4-.1-.5-.4-.7-.8-.8 2.5-3.6.3-9-1-12.7C58.7 45 66.1 33.3 77.3 28c.2.4.5.6 1 .6 10.3.2 20.7 2.1 31.1 2.7 2.8.2 5.3 0 7.6-.4 2-.1 4.1-.5 5.9-1.2-.4 1.2 1.4 2.1 2.3 1 .4-.5.8-1.1 1.1-1.6l.9-1.5c.4-.1.7-.3 1.1-.4 1.2-.7.7-2.1-.3-2.4zM41.9 47.1c-.1-.1-.2-.3-.2-.4 0-.2 0-.5-.1-.8-.6-1-1.1-2-1.5-2.9-.7-2.6-.8-5.4-.3-7.4.5-2.3 1.6-4.1 3.1-5.4-1.4 5.4-1.6 11.2-1 16.9zm81.4-29.4c.2.3.4.6.5.9h-.5c-.2-.2-.3-.4-.5-.6 0-.1-.1-.1-.1-.1.2-.1.4-.1.6-.2zM91.2-3.2c3.5.3 6.9.9 10.2 2-3.3-.7-6.6-1.1-9.5-1.4-2.9-.4-5.6-.4-8.2-.2 0-.2 0-.3-.1-.5 1.8-.9 5.7-.1 7.6.1zm-45.4 32c.2 0 .5-.1.7-.1.6 0 1-.4 1.2-.8.3 0 .5-.1.8-.1.8 0 1.6 0 2.4.2.3.1.6.1.8.2 1.2.4 2.3 1.1 3.3 2.6 1.5 2.3 1.4 6.6.7 9.2-1.2 4.3-5 11.9-10.8 9.5-1.2-7.1-.9-14.4.9-20.7zm17 53.6c-.6 2.3-1.6 4.4-2.3 6.6h-.3c-1.5.1-3.3-.6-4.5-1.5 0 0-.1 0-.1-.1.6-2.1 1.8-3.9 2.5-6.1.8-2.6.5-5.3.2-7.9 1.4-.2 2.7-.6 3.9-1.5.9 3.7 1.6 6.8.6 10.5zm5.4-53.3c-.5.5-.4 1.2-.1 1.6-2.9 2.4-5.3 5.2-6.8 8.4-2.1 4.2-3 10.1-2.3 14.7.9 5.4 8.6 19-4.5 17h-.4c-.2-.3-.5-.6-.7-.9.5.1.9.2 1.4.1.8-.1 1.5-.4 2.2-.7.8-.3 1.5-.8 2.1-1.3.7-.6 1.3-1.7 2.1-2.2 1.4-.9.1-3.1-1.3-2.2-1.3.8-2 2.3-3.4 3.1-.6.3-1.3.7-2 .8-.8.1-1.5-.3-2.3-.3-.3 0-.5.1-.7.2-3-4.4-5-9.6-6.2-15.2 7.2 1.8 12.2-7.8 13.2-13.5.5-3.2-.1-7.9-2.2-10.5l-.3-.3c0-.3-.2-.7-.6-.9-2.5-1.4-5.4-2.7-8.3-2.3 2.1-5.4 5.1-10.3 9-14.4.3.7 1.3 1.1 2.1.5C67.2 3.7 76.8-1 88.6-.4c5.5.3 10.9 1.6 16.2 3 2.1.6 6.4 1.7 9.5 3.5l.3.3c.1.2.2.4.4.6.3.2.6.5.9.7.6.7 1.2 1.3 1.7 2 .1.3.3.6.5.7 1 1.5 1.9 3 2.6 4.7v1.2c0 .7.5 1.1 1 1.2 0 0 .1 0 .1.1-.5.1-.9.6-1 1.1-.7 0-1.5.1-2.2.1-.2-.3-.5-.6-1-.5-.5.1-1 .1-1.5.1-5.7-.7-11.7-.4-16.7.3-10.1 1.2-23.5 3.1-31.2 10.4zm57-3.7c-.5.4-1 .7-1.5 1-.5.2-.9.5-1.4.7-2.4 1-5.1 1.3-7.7 1-.1-.5-.5-1-1.2-1H110c-.9 0-1.3.7-1.2 1.5-1.1-.1-2.2-.2-3.2-.2-7.6-.5-15.2-1.8-22.9-2.3 5.3-1.2 10.7-2.4 16-3.4 4.7-.9 9.4-1.1 14-1.5.2.1.4.2.7.2 1.6 0 3.2 0 4.8-.1 2 .4 3.9 1 5.6 1.8.1.1.2.3.3.4.3.7.7 1.3 1.1 1.9z"/><path class="st6" d="M50.1 71.3c-5.3-7.6-8.3-16.9-8.3-27 0-25.8 20.4-46.7 45.5-46.7 17.9 0 33.3 10.5 40.8 25.9 0 0-17.5-9.5-50.5 1.5 0 0-17.8 9.4-17.4 26.7s8.5 20.3.5 23.5c-5 1.9-10.6-3.9-10.6-3.9z"/><ellipse class="st7" cx="46.9" cy="38.3" rx="11.5" ry="13.4"/></g></svg>