<svg id="sign" xmlns="http://www.w3.org/2000/svg" viewBox="0 0 141.6 109.2"><style>.st0{fill:#738BD7;} .st1{fill:none;stroke:#9CB4F7;stroke-width:2;stroke-linecap:round;stroke-linejoin:round;stroke-miterlimit:10;}</style><path class="st0" d="M25.21 19.94l85.528-8.986 5.643 53.703-85.526 8.987z"/><path class="st1" d="M25.21 19.94l85.528-8.986 5.643 53.703-85.526 8.987z"/><g><path class="st1" d="M71.7 59.5l16.4-15.7c.8-.8.8-2.1 0-2.9L71.7 25.1c-1.3-1.2-3.4-.3-3.4 1.4v4.8c0 1.1-.9 2-2 2H54.9c-1.1 0-2 .9-2 2v13.9c0 1.1.9 2 2 2h11.4c1.1 0 2-.1 2 1V58c0 1.8 2.1 2.7 3.4 1.5z"/></g></svg>