<svg id="nut_1_" xmlns="http://www.w3.org/2000/svg" viewBox="0 0 170 190"><style>.st0{fill:#EBEFF7;} .st1{fill:#DAE2ED;} .st2{fill:#C5CEDD;}</style><g id="nut"><ellipse transform="rotate(-24.663 109.143 137.12)" class="st0" cx="109.1" cy="137.1" rx="28" ry="28"/><ellipse transform="rotate(-24.663 109.143 137.12)" class="st1" cx="109.1" cy="137.1" rx="23.6" ry="23.6"/><path class="st2" d="M119.3 123.2l7.4 12.9c.5.8.5 1.8 0 2.5l-7.4 12.9c-.5.8-1.3 1.3-2.2 1.3h-14.9c-.9 0-1.8-.5-2.2-1.3l-7.4-12.9c-.5-.8-.5-1.8 0-2.5l7.4-12.9c.5-.8 1.3-1.3 2.2-1.3h14.9c.9 0 1.8.5 2.2 1.3z"/><ellipse transform="rotate(-24.663 109.143 137.12)" class="st0" cx="109.1" cy="137.1" rx="8.2" ry="8.2"/></g></svg>