<svg id="exhaust2_1_" xmlns="http://www.w3.org/2000/svg" viewBox="0 0 170 190"><style>.st0{fill:#C5CEDD;} .st1{fill:#DAE2ED;} .st2{fill:#D0D9EA;}</style><g id="exhaust2"><path class="st0" d="M60.295 122.56l18.43 10.48-5.98 10.52-18.43-10.48z"/><path class="st1" d="M55.5 137.6l-47.2-22c-.9-.4-1.6-1.3-1.7-2.3-.3-2.2-.2-6.4 3.2-12.4 3.4-6.1 7-8.3 9-9.1.9-.4 2-.2 2.8.3l43 29.3c1.3.9 1.7 2.6.9 4l-6.2 11c-.7 1.3-2.4 1.8-3.8 1.2z"/><path class="st2" d="M89.7 156.7l-21.1-12c-.7-.4-1-1.3-.6-2.1l7.5-13.2c.4-.7 1.3-1 2.1-.6l21.1 12-9 15.9zM34.5 104.4c1.5.8 2 2.7 1.1 4.1-.8 1.5-2.7 2-4.1 1.1M48.2 117c-.8 1.5-2.7 2-4.1 1.1s-2-2.7-1.1-4.1"/></g></svg>