<svg id="pylon_x5F_bot" xmlns="http://www.w3.org/2000/svg" viewBox="0 0 180 280"><style>.st0{fill:#738BD7;} .st1{fill:none;stroke:#7C93E4;stroke-width:2;stroke-linecap:round;stroke-linejoin:round;stroke-miterlimit:10;}</style><path class="st0" d="M127.6 67.2L119 59l-2.6-6.2 2.6 4.7-8.8-28.5-8-9.6L90.5 5.6l-18 25.8s-23 55.7-21.8 58l.1.3c.7 5.3-5.5 66.2-5.5 66.2l6.3 55 40.3 64.9 35.8-59.6 7-65.7-7.1-83.3z"/><path class="st1" d="M90.5 5.6l-18 25.8s-23 55.7-21.8 58-5.4 66.5-5.4 66.5l6.3 55 40.3 64.9 35.8-59.6 7-65.7-7-83.3-42.6-40.4 5.4-21.2z"/><path class="st1" d="M90.5 5.6L110.2 29l8.8 28.6M118 119l9.6-51.8L118 119zM111.2 127.8l-23.6 42.9M86.9 168.8l-29.8-51.5-6.4-28 34.4-62.5-1.7 51.9 1.6 48.1 2.4 40.5 2.5 42.8 1.9 65.7M134.6 150.5l-17.2 33.2"/></svg>