<svg id="mario_x5F_bg" xmlns="http://www.w3.org/2000/svg" viewBox="0 0 1860 314"><style>.st0{fill:#738BD7;} .st1{fill:none;stroke:#7C93E4;stroke-width:2;stroke-linecap:round;stroke-linejoin:round;stroke-miterlimit:10;} .st2{fill:none;stroke:#7C93E4;stroke-width:2;stroke-miterlimit:10;}</style><path class="st0" d="M895.3 311.2l20.5-173.5c6.8-57.5 55.5-100.8 113.4-100.8 57.9 0 106.6 43.3 113.4 100.8l20.5 173.5"/><path class="st1" d="M1147.5 182.2l-30-26.6c-15.5-13.7-39.5-10.8-51.3 6.2-17.8 25.7-55.9 25.7-73.7 0-11.8-17-35.8-19.9-51.3-6.2l-30 26.6"/><path class="st2" d="M895.3 311.2l20.5-173.5c6.8-57.5 55.5-100.8 113.4-100.8 57.9 0 106.6 43.3 113.4 100.8l20.5 173.5"/><path class="st0" d="M1353.6 311.2l43.3-122.6c16.5-46.6 60.5-77.8 110-77.8 49.4 0 93.5 31.2 110 77.8l43.3 122.6"/><path class="st2" d="M1353.6 311.2l43.3-122.6c16.5-46.6 60.5-77.8 110-77.8 49.4 0 93.5 31.2 110 77.8l43.3 122.6"/><path class="st1" d="M1626.3 214.1l-30.4-27.2c-15.7-14-39.9-11.1-51.9 6.3-18 26.3-56.5 26.3-74.5 0-11.9-17.4-36.2-20.4-51.9-6.3l-30.4 27.2"/><path class="st0" d="M1631.6 311.2l2.7-52.7c.7-13.5 11.9-24.2 25.4-24.2 13.6 0 24.7 10.6 25.4 24.2l2.7 52.7"/><path class="st2" d="M1631.6 311.2l2.7-52.7c.7-13.5 11.9-24.2 25.4-24.2 13.6 0 24.7 10.6 25.4 24.2l2.7 52.7"/><path class="st1" d="M1685.6 268.8l-8.5-6.2c-2.5-1.8-6-1.4-7.9 1l-4.9 5.9c-2.3 2.8-6.6 2.8-9 0l-4.9-5.9c-2-2.4-5.4-2.8-7.9-1l-8.5 6.2"/><path class="st0" d="M1631.6 311.2l2.7-52.7c.7-13.5 11.9-24.2 25.4-24.2 13.6 0 24.7 10.6 25.4 24.2l2.7 52.7"/><path class="st2" d="M1631.6 311.2l2.7-52.7c.7-13.5 11.9-24.2 25.4-24.2 13.6 0 24.7 10.6 25.4 24.2l2.7 52.7"/><path class="st1" d="M1685.6 268.8l-8.5-6.2c-2.5-1.8-6-1.4-7.9 1l-4.9 5.9c-2.3 2.8-6.6 2.8-9 0l-4.9-5.9c-2-2.4-5.4-2.8-7.9-1l-8.5 6.2"/><path class="st0" d="M1726.6 311.2l8.5-71.8c2.8-23.8 23-41.7 46.9-41.7 24 0 44.1 17.9 46.9 41.7l8.5 71.8"/><path class="st1" d="M1830.9 257.8l-12.4-11c-6.4-5.7-16.3-4.5-21.2 2.6-7.4 10.6-23.1 10.6-30.5 0-4.9-7-14.8-8.2-21.2-2.6l-12.4 11"/><path class="st2" d="M1726.6 311.2l8.5-71.8c2.8-23.8 23-41.7 46.9-41.7 24 0 44.1 17.9 46.9 41.7l8.5 71.8"/><g><path class="st0" d="M145.7 311.2l16.1-136.4c5.3-45.2 43.7-79.3 89.2-79.3s83.9 34.1 89.2 79.3l16.1 136.4"/><path class="st1" d="M343.9 209.8l-23.6-20.9c-12.2-10.8-31.1-8.5-40.3 4.9-14 20.2-44 20.2-58 0-9.3-13.4-28.2-15.6-40.3-4.9L158 209.8"/><path class="st2" d="M145.7 311.2l16.1-136.4c5.3-45.2 43.7-79.3 89.2-79.3s83.9 34.1 89.2 79.3l16.1 136.4"/></g><g><path class="st0" d="M294.1 311.2l14.2-208.9c2.2-32.6 29.3-58 62-58s59.8 25.3 62 58l14.2 208.9"/><path class="st1" d="M434.4 123.8l-24.1-18.1c-4.3-3.2-10.4-2.1-13.2 2.5l-9.8 15.8c-7.8 12.6-26.1 12.6-33.9 0l-9.8-15.8c-2.8-4.5-8.9-5.7-13.2-2.5l-24.1 18.1"/><path class="st2" d="M294.1 311.2l14.2-208.9c2.2-32.6 29.3-58 62-58s59.8 25.3 62 58l14.2 208.9"/></g><g><path class="st0" d="M576.4 311.2l10.5-206.7c2.7-53.1 46.5-94.8 99.7-94.8s97 41.7 99.7 94.8l10.5 206.7"/><path class="st2" d="M576.4 311.2l10.5-206.7c2.7-53.1 46.5-94.8 99.7-94.8s97 41.7 99.7 94.8l10.5 206.7"/><path class="st1" d="M788.1 145l-33.5-24.5c-9.7-7.1-23.3-5.5-31.1 3.8l-19.4 23c-9.2 10.9-26 10.9-35.1 0l-19.4-23c-7.8-9.2-21.4-10.9-31.1-3.8L585.1 145"/></g><g><path class="st0" d="M576.4 311.2l10.5-206.7c2.7-53.1 46.5-94.8 99.7-94.8s97 41.7 99.7 94.8l10.5 206.7"/><path class="st2" d="M576.4 311.2l10.5-206.7c2.7-53.1 46.5-94.8 99.7-94.8s97 41.7 99.7 94.8l10.5 206.7"/><path class="st1" d="M788.1 145l-33.5-24.5c-9.7-7.1-23.3-5.5-31.1 3.8l-19.4 23c-9.2 10.9-26 10.9-35.1 0l-19.4-23c-7.8-9.2-21.4-10.9-31.1-3.8L585.1 145"/></g><g><path class="st0" d="M471.8 311.2l14.8-125.5c4.9-41.6 40.2-73 82.1-73 41.9 0 77.2 31.3 82.1 73l14.8 125.5"/><path class="st1" d="M654.3 217.9l-21.7-19.3c-11.2-9.9-28.6-7.8-37.1 4.5-12.9 18.6-40.5 18.6-53.4 0-8.5-12.3-25.9-14.4-37.1-4.5l-21.7 19.3"/><path class="st2" d="M471.8 311.2l14.8-125.5c4.9-41.6 40.2-73 82.1-73 41.9 0 77.2 31.3 82.1 73l14.8 125.5"/></g><g><path class="st0" d="M684.6 311l7.4-37.6c14.3-73.2 78.5-126.1 153.2-126.1 74.6 0 138.8 52.9 153.2 126.1l7.4 37.7"/><path class="st2" d="M684.6 311l7.4-37.6c14.3-73.2 78.5-126.1 153.2-126.1 74.6 0 138.8 52.9 153.2 126.1l7.4 37.7"/><path class="st1" d="M980.3 224.1l-46.1-19.4c-13.4-5.7-28.8-4.1-40.8 4.1-29.1 19.9-67.4 19.9-96.4 0-12-8.2-27.4-9.8-40.8-4.1l-46.1 19.4"/></g><g><path class="st0" d="M1179.1 75.8h6.5v5.8h-6.5zM1196 75.8h6.5v5.8h-6.5zM1204.5 75.8h6.5v5.8h-6.5zM1170.7 75.8h6.5v5.8h-6.5zM1187.6 75.8h6.5v5.8h-6.5zM1153.7 75.8h6.5v5.8h-6.5zM1162.2 75.8h2.2v5.8h-2.2zM1166.4 75.8h2.3v5.8h-2.3zM1251.1 75.8h2.2v5.8h-2.2zM1255.3 75.8h6.5v5.8h-6.5zM1213 75.8h6.5v5.8h-6.5zM1246.8 75.8h2.3v5.8h-2.3zM1221.4 75.8h6.5v5.8h-6.5zM1229.9 75.8h6.5v5.8h-6.5zM1238.4 75.8h6.5v5.8h-6.5z"/><path class="st0" d="M1437.1 167.8c-9.6-40-37-60.1-40.8-62.8v-5.4l32.7-11.3c.4-.1.7-.5.7-.9s-.3-.8-.7-.9L1395.6 75c-.3-.1-.6-.1-.9.1-.3.2-.4.5-.4.8v29c-2.4 1.6-27.7 19.4-39 55.5-6.8-22.5-22.2-34.2-25-36.2v-3.8l20.7-7.2c.4-.1.7-.5.7-.9s-.3-.8-.7-.9l-21.4-7.4c-.3-.1-.6-.1-.9.1s-.4.5-.4.8V124c-1.3.9-6.5 4.6-12.2 11.7l-35.7-22.9c-.2-.1-.3-.2-.5-.2h-8.6v-30c0-.6-.4-1-1-1h-6.4v-5.8h2.6c.6 0 1-.4 1-1s-.4-1-1-1h-15.2V50.6c0-.6-.4-1-1-1s-1 .4-1 1v23.2h-82.7V50.6c0-.6-.4-1-1-1s-1 .4-1 1v23.2h-15.2c-.6 0-1 .4-1 1s.4 1 1 1h2.6v5.8h-6.4c-.6 0-1 .4-1 1v30h-9.4c-.2 0-.4.1-.5.2l-35.7 22.9c-5.5-6.8-10.6-10.6-12.1-11.6v-3.8l20.7-7.2c.4-.1.7-.5.7-.9s-.3-.8-.7-.9l-21.4-7.4c-.3-.1-.6-.1-.9.1-.3.2-.4.5-.4.8v19.1c-2.3 1.6-17.6 12.8-24.8 34.9-11.1-34.1-34.7-51.4-38.3-53.9v-5.4l32.7-11.3c.4-.1.7-.5.7-.9s-.3-.8-.7-.9l-33.4-11.5c-.3-.1-.6-.1-.9.1s-.4.5-.4.8v29c-2.6 1.7-31.3 21.9-41.1 63-.1.3 0 .6.2.9.2.2.5.4.8.4h6.1v141.2c0 .6.4 1 1 1s1-.4 1-1h440.7c0 .6.4 1 1 1s1-.4 1-1V169h6.1c.3 0 .6-.1.8-.4-.3-.2-.2-.5-.3-.8zm-276.9-86.2h-6.5v-5.8h6.5v5.8zm4.2 0h-2.2v-5.8h2.2v5.8zm4.3 0h-2.3v-5.8h2.3v5.8zm8.4 0h-6.5v-5.8h6.5v5.8zm8.5 0h-6.5v-5.8h6.5v5.8zm8.4 0h-6.5v-5.8h6.5v5.8zm8.5 0h-6.5v-5.8h6.5v5.8zm8.5 0h-6.5v-5.8h6.5v5.8zm8.4 0h-6.5v-5.8h6.5v5.8zm8.5 0h-6.5v-5.8h6.5v5.8zm8.5 0h-6.5v-5.8h6.5v5.8zm8.4 0h-6.5v-5.8h6.5v5.8zm4.3 0h-2.3v-5.8h2.3v5.8zm4.2 0h-2.2v-5.8h2.2v5.8zm8.4 0h-6.5v-5.8h6.5v5.8z"/><g><path class="st1" d="M1020.5 168h40.9c-10.3-42.9-40.9-62.5-40.9-62.5h-.3s-30.6 19.6-40.9 62.5h40.9M1020.5 98.8v-23l33.3 11.5zM1020.5 98.8v6.7M986.4 168.2v142M1054.3 168.2v142M1031.3 213.2h-22v-16c0-6.1 4.9-11 11-11s11 4.9 11 11v16zM1005.3 213.2h30M1020.3 186.2v27M1009.7 200.9h21.3M1031.3 265.2h-22v-16c0-6.1 4.9-11 11-11s11 4.9 11 11v16zM1005.3 265.2h30M1020.3 238.2v27M1009.7 252.9h21.3"/><g><path class="st1" d="M1395.3 168h40.9c-10.3-42.9-40.9-62.5-40.9-62.5h-.3s-30.6 19.6-40.9 62.5h40.9M1395.3 98.8v-23l33.3 11.5zM1395.3 98.8v6.7M1361.2 168.2v142M1429.1 168.2v142"/><g><path class="st1" d="M1406.1 213.2h-22v-16c0-6.1 4.9-11 11-11s11 4.9 11 11v16zM1380.1 213.2h30M1395.1 186.2v27M1384.5 200.9h21.3"/></g><g><path class="st1" d="M1406.1 265.2h-22v-16c0-6.1 4.9-11 11-11s11 4.9 11 11v16zM1380.1 265.2h30M1395.1 238.2v27M1384.5 252.9h21.3"/></g></g><g><path class="st1" d="M1124.5 213.2h-22v-16c0-6.1 4.9-11 11-11s11 4.9 11 11v16zM1098.5 213.2h30M1113.5 186.2v27M1102.9 200.9h21.3"/></g><g><path class="st1" d="M1124.5 265.2h-22v-16c0-6.1 4.9-11 11-11s11 4.9 11 11v16zM1098.5 265.2h30M1113.5 238.2v27M1102.9 252.9h21.3"/></g><path class="st1" d="M1194.4 113.6h-59.5l-74.2 47.6"/><g><path class="st1" d="M1098.1 136.6c-6.5-8.1-12.5-12-12.5-12h-.2s-19.6 12.6-26.2 40.1M1085.5 119.6v-14.8l21.5 7.4zM1085.5 119.6v5"/></g><path class="st1" d="M1360.4 182.2h-27.3l-53.4-35h-35.6s-8.1-28-36.4-41.4h-.9c-28.2 13.4-36.4 41.4-36.4 41.4h-35.6l-53.4 35h-27.3"/><g><path class="st1" d="M1290.1 213.2h22v-16c0-6.1-4.9-11-11-11s-11 4.9-11 11v16zM1316.1 213.2h-30M1301.1 186.2v27M1311.8 200.9h-21.3"/></g><g><path class="st1" d="M1290.1 265.2h22v-16c0-6.1-4.9-11-11-11s-11 4.9-11 11v16zM1316.1 265.2h-30M1301.1 238.2v27M1311.8 252.9h-21.3"/></g><path class="st1" d="M1220.2 113.6h59.5l74.3 47.6"/><g><path class="st1" d="M1355.4 164.7c-6.6-27.5-26.2-40.1-26.2-40.1h-.2s-6.4 4.1-13.2 12.8M1329.2 119.6v-14.8l21.4 7.4zM1329.2 119.6v5"/></g><path class="st1" d="M1265.3 310.2h-16v-62.4c0-22.9-18.7-41.6-41.6-41.6-22.9 0-41.6 18.7-41.6 41.6v62.4h-16v-62.4c0-31.8 25.8-57.6 57.6-57.6s57.6 25.8 57.6 57.6v62.4zM1145.3 113.6v-31h124.8v31"/><g><path class="st1" d="M1152.7 74.8v6.8M1161.2 74.8v6.8M1169.7 74.8v6.8M1178.1 74.8v6.8M1186.6 74.8v6.8M1195 74.8v6.8M1203.5 74.8v6.8M1212 74.8v6.8M1220.4 74.8v6.8M1228.9 74.8v6.8M1237.4 74.8v6.8M1245.8 74.8v6.8M1254.3 74.8v6.8M1262.7 74.8v6.8"/></g><path class="st1" d="M1149.1 74.8h117.2"/><g><path class="st1" d="M1159.3 166.6h96.8v12h-96.8zM1169.7 158.9v6.7M1178.1 158.9v6.7M1186.6 158.9v6.7M1195 158.9v6.7M1203.5 158.9v6.7M1212 158.9v6.7M1220.4 158.9v6.7M1228.9 158.9v6.7M1237.4 158.9v6.7M1245.8 158.9v6.7M1163.1 158.9h89.2"/><path class="st1" d="M1191.1 166.6v-18.2c0-9.2 7.4-16.6 16.6-16.6 9.2 0 16.6 7.4 16.6 16.6v18.2"/></g><path class="st1" d="M1250.1 50.6v31M1165.4 81.6v-31"/></g></g><g><path class="st0" d="M24.5 311.2l3.7-73.1c1-18.8 16.5-33.5 35.3-33.5 18.8 0 34.3 14.7 35.3 33.5l3.7 73.1"/><path class="st2" d="M24.5 311.2l3.7-73.1c1-18.8 16.5-33.5 35.3-33.5 18.8 0 34.3 14.7 35.3 33.5l3.7 73.1"/><path class="st1" d="M99.4 252.4l-11.9-8.7c-3.4-2.5-8.3-1.9-11 1.3l-6.8 8.1c-3.2 3.9-9.2 3.9-12.4 0l-6.8-8.1c-2.7-3.3-7.6-3.8-11-1.3l-11.9 8.7"/></g></svg>