<svg id="worker" xmlns="http://www.w3.org/2000/svg" viewBox="0 0 190 170"><style>.st0{fill:none;} .st1{fill:#738BD7;} .st2{fill:none;stroke:#9CB4F7;stroke-width:2;stroke-linecap:round;stroke-linejoin:round;stroke-miterlimit:10;}</style><path class="st0" d="M93.3 34.8v-1h-.1l.1 1zM11.1 78c0-.1 0-.1 0 0H11c.1 0 .2 0 .3.1l.2-.8-.3.4c0 .2-.1.3-.1.3z"/><path class="st1" d="M182.2 61.2l-14.3-7.6c-.1-.1-.3-.1-.4-.1l-8-.2c-.4 0-.7.2-.9.4 0 .1-.1.1-.1.2-.1.2-.1.5 0 .7l-1.9-4.1c-.2-.3-.5-.6-.8-.6l-32.5-2.2h.4c.1-.1.2-.1.3-.2l5.3-5.5c.3-.3.4-.8.1-1.2l-1.9-3 1.8 2.9c.1.1.1.2.2.2h.1c.1.1.2.1.3.1h.4c.1 0 .2-.1.3-.1l1-.6c.3-.2.5-.5.5-.9V36c0-.2-.1-.4-.2-.6l-4.8-6.3c-.2-.3-.5-.4-.8-.4h-6.7c-.4 0-.8.3-.9.7 0 .1-.1.2-.1.3V30c0 .1 0 .1.1.2v.1c0 .1.1.1.2.2v.1l-1.8-1.5c-.2-.1-.4-.2-.7-.2h-.2l-6.7 1.4-6.7 1.4c-.4.1-.7.4-.8.8V33.1s0 .1.1.1c0 .1.1.1.1.1l.1.1s0 .1.1.1c-.1 0-.1-.1-.2-.1s-.1-.1-.2-.1c-.1-.1-.2-.1-.3-.2l-.1-.1c-.1-.1-.2-.1-.2-.2l-.1-.1c-.1-.1-.2-.1-.3-.2-.2-.2-.6-.3-.9-.2l-7.4 1.6h.1v1l-.1-1c-.3 0-.7.1-.9.4l1.7-2.4c.3-.4.2-1-.1-1.3-.4-.3-.9-.4-1.3-.1l-35 26.4 39.2-29.3c.3-.2.4-.6.4-.9 0-.4-.3-.7-.6-.8l-5.3-2.4c-.3-.1-.5-.1-.8 0L74.5 30c.1 0 .1-.1.2-.1 0 0 .1 0 .1-.1.1 0 .1-.1.1-.1l.1-.1c0-.1.1-.1.1-.2v-.1V18.2c0-.2-.1-.4-.1-.5l-5.3-8.6c-.2-.3-.5-.5-.9-.5h-3.2c-.4 0-.8.2-.9.6L52.4 37.4c-.2.4-.1.8.2 1.1.1.1.2.1.3.2h.1c.1 0 .2 0 .3.1h.1c.1 0 .2 0 .3-.1L29.1 49c-.2.1-.3.2-.5.4L23.2 57c-2.8.1-5.8.1-5.8.1s0 .1-.1.3L9.8 78.8l-2.3 4.5c-.1.2-.1.4-.1.6l1.4 13c0 .4.3.7.6.8l11.3 5c.1.1.3.1.4.1.1 0 .3 0 .4-.1l.3-.3v-.1c.1-.1.1-.2.1-.3l-.6 2.3c-.1.4 0 .8.3 1l25.7 21.8c.1.1.2.2.4.2l13.5 4h.5c.1 0 .2-.1.4-.1.2-.2.4-.4.4-.7L60.2 148c-.1.5.2.9.6 1.1.1 0 .2.1.3.1H61.4c.1 0 .1 0 .2-.1 0 0 .1 0 .1-.1l.1-.1c-.5.8-1.1 1.5-1.7 2.3-.3.2-.5.4-.5.8l-1.2 10.3c0 .3.1.6.2.8.2.2.5.3.7.3h12.6c.4 0 .8-.2.9-.6l15-30.3c.1-.3.1-.6-.1-.9l-.1-.2c.1.1.1.2.2.2 0 0 .1 0 .1.1.1 0 .1.1.2.1h.7l7.2-2.3c.2-.1.3-.2.4-.3.4-.4.7-.8 1-1.2.1-.1.2-.3.3-.4.2-.3.4-.6.7-.9l.1-.1c-.1.1-.1.2-.2.3-.2.4-.2.8 0 1.2l.3.3h.1c.1.1.3.1.4.1h.3l1.7-.6c.2-.1.3-.2.5-.3l12.2-14.3c.1-.1.1-.2.2-.2l1-2.3c-.2.4-.1.8.2 1.1.1.1.2.1.3.2h.4c.1 0 .3 0 .4-.1l25.3-11.6c.3-.1.5-.4.6-.7v-.2c0-.2-.1-.5-.3-.6.1.1.2.2.4.2h.4c.3 0 .6-.2.8-.5l3.3-5.6c.2-.3.2-.7 0-1.1L142 84c-.1-.2-.4-.4-.6-.4l-5.3-1.1h.5l40-13.4c.2-.1.3-.1.4-.3l5.6-6c.2-.2.3-.5.3-.8-.2-.4-.4-.6-.7-.8zM11.3 78.1c-.1 0-.2-.1-.3-.1l.1-.1h.1s0-.1.1-.2l.3-.4-.3.8z"/><g><path class="st2" d="M97.7 26.6l-7.3-3.3-61.6 25.9-18.4 28.4 11 6zM91.7 61.8l19.7 8.5 44-6 4.7-6.3-3.7-8-71.2-4.9-3.5 4.2 6 19.7-44.6 8-9.1 6.6M111.4 70.3h-15"/><path class="st2" d="M87.7 69l10 8 3.9 12 9.8 5 5.7 12.3-3 6.7 29-13.4-13.1-14 2.3-4.1L97.7 77"/><path class="st2" d="M130 81.3l11.7 2.3 5.7 8.7-4.3 7.3M136.3 82.5L176.7 69l6.7-7.2-15.7-8.3-9.8-.3M124 47.5l6-6.2-3-4.7-9.9-8-23.9 5.2"/><path class="st2" d="M117.1 28.6h10l5.2 7V40l-2.3 1.3M75.1 29.6V18l-5.8-9.4h-4.4L51.5 39.3M63.3 125.6h21.1l3.8 6.4-15.5 31.3H58.4zM38.2 99.6H22.7l-1.3-16"/><path class="st2" d="M22.7 99.6l-1.3 5.4 26.3 22.3 14.9 4.4M88.2 132l13.4-4.4 12.5-14.6M62 59l2.3 2.8M58 61.4l2.2 2.9M84.4 125.6l10.8-10 1.2-17.3-17.5-13.8L54 86.3 38.1 99.6l5.6 13.4"/><path class="st2" d="M56.6 93.6l-9.3 8.6 6.7 13.4 13.2 4.9 15-4 5.5-6.4.7-8.6-13.3-7.7M81.7 49.3l16-22.7M101.1 32.1s8.7 8.3 23.6 2.7M111.4 78.8s-5.5 16.9 26.1 14.9M71 125.6s-.6 12.5-10.8 25.5M96.4 98.3s13.5 16.4 0 31M23.2 57l-5.8.1-7 20.5-3 6 1.5 13.9 12.5 5.5"/></g></svg>