<svg id="pylon_x5F_top" xmlns="http://www.w3.org/2000/svg" viewBox="0 0 180 280"><style>.st0{fill:#738BD7;} .st1{fill:none;stroke:#7C93E4;stroke-width:2;stroke-linecap:round;stroke-linejoin:round;stroke-miterlimit:10;}</style><path class="st0" d="M30.5 176.3h118.8v32.1H30.5z"/><path class="st1" d="M30.5 176.3h118.8v32.1H30.5z"/><path class="st1" d="M149.3 194.5h-17.9v11.2M133.5 176.3v8h-11.8v12.3H55.9v-10.2H44.1v-10.1M30.5 194.5h18.1v14.8"/><g><path class="st0" d="M89.9 259.7c-35.5-35.5-35.5-93 0-128.5 35.5 35.6 35.5 93.1 0 128.5z"/><path class="st1" d="M89.9 259.7c-35.5-35.5-35.5-93 0-128.5 35.5 35.6 35.5 93.1 0 128.5z"/><path class="st1" d="M89.9 194.7c-11-11-11-28.9 0-39.9 11 11.1 11 28.9 0 39.9zM63.6 188.8s14.1 6.1 19 25.1-2.4 34.4-2.4 34.4M116.3 188.8s-14.1 6.1-19 25.1 2.4 34.4 2.4 34.4"/></g><g><path class="st0" d="M34.3 93.1v166.6S5.9 229.2 5.9 180.5s28.4-87.4 28.4-87.4z"/><path class="st1" d="M34.3 93.1v166.6S5.9 229.2 5.9 180.5s28.4-87.4 28.4-87.4z"/><path class="st1" d="M26 106.6v102.7S5.9 195.6 5.9 180.6"/><g><path class="st0" d="M145.6 93.1v166.6s28.4-30.5 28.4-79.2-28.4-87.4-28.4-87.4z"/><path class="st1" d="M145.6 93.1v166.6s28.4-30.5 28.4-79.2-28.4-87.4-28.4-87.4z"/><path class="st1" d="M153.8 106.6v102.7s20.1-13.7 20.1-28.7"/></g></g></svg>