<svg id="mario_x5F_fg" xmlns="http://www.w3.org/2000/svg" viewBox="0 0 1860 314"><style>.st0{fill:none;stroke:#9CB4F7;stroke-width:2;stroke-linecap:round;stroke-linejoin:round;stroke-miterlimit:10;} .st1{fill:#738BD7;} .st2{fill:#5865f2;stroke:#9CB4F7;stroke-width:2;stroke-linecap:round;stroke-linejoin:round;stroke-miterlimit:10;} .st3{fill:#9CB4F7;}</style><path class="st0" d="M848 299.8l-12.5-9.2c-3.6-2.6-4.4-7.7-1.7-11.3l5.7-7.7c2.6-3.6 7.7-4.4 11.3-1.7l12.5 9.2c3.6 2.6 4.4 7.7 1.7 11.3l-5.7 7.7c-2.6 3.5-7.6 4.3-11.3 1.7z"/><path class="st0" d="M839.2 281l3.5-4.8c1.5-2 4.3-2.4 6.3-1l9.6 7c2 1.5 2.4 4.3 1 6.3l-3.5 4.8c-1.5 2-4.3 2.4-6.3 1l-9.6-7c-2-1.5-2.4-4.3-1-6.3zM887.9 310.8l-15.4-1.3c-4.5-.4-7.8-4.3-7.4-8.8l.8-9.6c.4-4.5 4.3-7.8 8.8-7.4l15.4 1.3c4.5.4 7.8 4.3 7.4 8.8l-.8 9.6c-.4 4.5-4.3 7.8-8.8 7.4z"/><path class="st0" d="M870.6 299.4l.5-6c.2-2.5 2.4-4.3 4.9-4.1l11.8 1c2.5.2 4.3 2.4 4.1 4.9l-.5 6c-.2 2.5-2.4 4.3-4.9 4.1l-11.8-1c-2.4-.3-4.3-2.5-4.1-4.9zM923.6 310.9l-15.5.6c-4.5.2-8.2-3.3-8.4-7.8l-.4-9.6c-.2-4.5 3.3-8.2 7.8-8.4l15.5-.6c4.5-.2 8.2 3.3 8.4 7.8l.4 9.6c.2 4.4-3.3 8.2-7.8 8.4z"/><path class="st0" d="M905.1 301.7l-.2-6c-.1-2.5 1.8-4.6 4.3-4.7l11.9-.5c2.5-.1 4.6 1.8 4.7 4.3l.2 6c.1 2.5-1.8 4.6-4.3 4.7l-11.9.5c-2.5.1-4.6-1.8-4.7-4.3zM962.6 304.6l-14.5 5.5c-4.2 1.6-8.9-.5-10.4-4.7l-3.4-9c-1.6-4.2.5-8.9 4.7-10.4l14.5-5.5c4.2-1.6 8.9.5 10.4 4.7l3.4 9c1.6 4.1-.5 8.8-4.7 10.4z"/><path class="st0" d="M942.1 301.8l-2.1-5.6c-.9-2.3.3-4.9 2.6-5.8l11.1-4.2c2.3-.9 4.9.3 5.8 2.6l2.1 5.6c.9 2.3-.3 4.9-2.6 5.8l-11.1 4.2c-2.4.9-5-.3-5.8-2.6zM991.5 309.5l-15.5-.7c-4.5-.2-7.9-4-7.7-8.5l.4-9.6c.2-4.5 4-7.9 8.5-7.7l15.5.7c4.5.2 7.9 4 7.7 8.5l-.4 9.6c-.2 4.5-4 7.9-8.5 7.7z"/><path class="st0" d="M973.8 298.8l.3-6c.1-2.5 2.2-4.4 4.7-4.3l11.9.5c2.5.1 4.4 2.2 4.3 4.7l-.3 6c-.1 2.5-2.2 4.4-4.7 4.3l-11.9-.5c-2.5-.1-4.4-2.2-4.3-4.7z"/><g><path class="st1" d="M872 300.2l-18.4-7.2c-1.8-.7-2.8-2.8-2-4.7.7-1.8 2.8-2.8 4.7-2l18.4 7.2c1.8.7 2.8 2.8 2 4.7-.8 1.8-2.9 2.7-4.7 2z"/><path class="st0" d="M872 300.2l-18.4-7.2c-1.8-.7-2.8-2.8-2-4.7.7-1.8 2.8-2.8 4.7-2l18.4 7.2c1.8.7 2.8 2.8 2 4.7-.8 1.8-2.9 2.7-4.7 2z"/></g><g><path class="st1" d="M908.6 303.1l-19.7-1.7c-2-.2-3.4-1.9-3.3-3.9.2-2 1.9-3.4 3.9-3.3l19.7 1.7c2 .2 3.4 1.9 3.3 3.9-.1 2-1.9 3.5-3.9 3.3z"/><path class="st0" d="M908.6 303.1l-19.7-1.7c-2-.2-3.4-1.9-3.3-3.9.2-2 1.9-3.4 3.9-3.3l19.7 1.7c2 .2 3.4 1.9 3.3 3.9-.1 2-1.9 3.5-3.9 3.3z"/></g><g><path class="st1" d="M942 302.1l-19.7-1.7c-2-.2-3.4-1.9-3.3-3.9.2-2 1.9-3.4 3.9-3.3l19.7 1.7c2 .2 3.4 1.9 3.3 3.9-.2 2-2 3.5-3.9 3.3z"/><path class="st0" d="M942 302.1l-19.7-1.7c-2-.2-3.4-1.9-3.3-3.9.2-2 1.9-3.4 3.9-3.3l19.7 1.7c2 .2 3.4 1.9 3.3 3.9-.2 2-2 3.5-3.9 3.3z"/></g><g><path class="st1" d="M975.4 298.7l-19.7-1.7c-2-.2-3.4-1.9-3.3-3.9.2-2 1.9-3.4 3.9-3.3l19.7 1.7c2 .2 3.4 1.9 3.3 3.9-.1 2-1.9 3.4-3.9 3.3z"/><path class="st0" d="M975.4 298.7l-19.7-1.7c-2-.2-3.4-1.9-3.3-3.9.2-2 1.9-3.4 3.9-3.3l19.7 1.7c2 .2 3.4 1.9 3.3 3.9-.1 2-1.9 3.4-3.9 3.3z"/></g><g><path class="st1" d="M1007 309.7l-16.8-10.5c-1.7-1-2.2-3.3-1.2-5 1-1.7 3.3-2.2 5-1.2l16.8 10.5c1.7 1 2.2 3.3 1.2 5-1.1 1.8-3.4 2.3-5 1.2z"/><path class="st0" d="M1007 309.7l-16.8-10.5c-1.7-1-2.2-3.3-1.2-5 1-1.7 3.3-2.2 5-1.2l16.8 10.5c1.7 1 2.2 3.3 1.2 5-1.1 1.8-3.4 2.3-5 1.2z"/></g><g><path class="st2" d="M713.8 241.9l7.9-12.6 5.7 8.6"/><path class="st1" d="M825.8 294.3L811 283.4l23.6-31.9 14.8 10.9c4.4 3.3 5.4 9.5 2.1 14l-11.7 15.8c-3.3 4.5-9.6 5.4-14 2.1z"/><path class="st0" d="M825.8 294.3L811 283.4l23.6-31.9 14.8 10.9c4.4 3.3 5.4 9.5 2.1 14l-11.7 15.8c-3.3 4.5-9.6 5.4-14 2.1z"/><path class="st2" d="M717.1 195.4l-.2 14.9 9.4-4.2"/><path class="st1" d="M700.7 159.8c24.8-21.7 57.5-34.9 91.3-25 47.7 14 75 64.1 60.9 111.7-14 47.7-64.1 75-111.7 60.9-27.6-8.1-48.4-28.3-58.2-53.1 0 0 .5-14.8 72.9-19.2-.2.1-69-63.3-55.2-75.3z"/><path class="st0" d="M700.7 159.8c24.8-21.7 57.5-34.9 91.3-25 47.7 14 75 64.1 60.9 111.7-14 47.7-64.1 75-111.7 60.9-27.6-8.1-48.4-28.3-58.2-53.1 0 0 .5-14.8 72.9-19.2-.2.1-69-63.3-55.2-75.3z"/><path class="st2" d="M714.1 163l-11.6 36 33.1-20.5M739.7 182.1l-13.7 36 39.3-12.8M707.7 160.2l-19.2 28.4 10.5-25.7M766.6 206.9l-1.8 24.8 21.5-4.3M790 230.7l-1.5 12.1 13.4-.1"/><g><path class="st2" d="M696.3 258.9l9.2-34.7 15.9 38.1M726.7 261.5l8.8-33.2 22.3 30.8M690.3 258l-1.6-31.3-6 26.9M761.9 258.1l8.9-18.5 17.6 12.6"/></g><path class="st0" d="M682.9 254.4c33 20.5 124.5-5.9 124.5-5.9s-70-74-84.7-81.1c0 0-18.3-13.3-23.7-4.5"/></g><g><circle class="st0" cx="809.8" cy="183.9" r="19.5"/><circle class="st3" cx="809.8" cy="183.9" r="14"/></g><g><path class="st1" d="M1522.3 261.2h184v50h-184z"/><path class="st0" d="M1522.3 261.2h184v50h-184z"/><path class="st0" d="M1532.3 311.2l22-25-22-25"/><path class="st0" d="M1550.3 311.2l22-25-22-25M1572.3 311.2l22-25-22-25"/><path class="st0" d="M1590.3 311.2l22-25-22-25M1612.3 311.2l22-25-22-25"/><path class="st0" d="M1630.3 311.2l22-25-22-25M1652.3 311.2l22-25-22-25"/><path class="st0" d="M1670.3 311.2l22-25-22-25"/></g><g><path class="st1" d="M280.8 228.2h78v83h-78z"/><path class="st0" d="M280.8 228.2h78v83h-78z"/><g><path class="st1" d="M272.8 223.2h94v28h-94z"/><path class="st0" d="M272.8 223.2h94v28h-94z"/></g></g><g><path class="st1" d="M1412.8 228.2h78v83h-78z"/><path class="st0" d="M1412.8 228.2h78v83h-78z"/><g><path class="st1" d="M1404.8 223.2h94v28h-94z"/><path class="st0" d="M1404.8 223.2h94v28h-94z"/></g></g><g><path class="st1" d="M328.7 261.2h184v50h-184z"/><path class="st0" d="M328.7 261.2h184v50h-184z"/><path class="st0" d="M338.7 311.2l22-25-22-25"/><path class="st0" d="M356.7 311.2l22-25-22-25M378.7 311.2l22-25-22-25"/><path class="st0" d="M396.7 311.2l22-25-22-25M418.7 311.2l22-25-22-25"/><path class="st0" d="M436.7 311.2l22-25-22-25M458.7 311.2l22-25-22-25"/><path class="st0" d="M476.7 311.2l22-25-22-25"/></g><g><path class="st1" d="M1294.1 261.2h184v50h-184z"/><path class="st0" d="M1294.1 261.2h184v50h-184z"/><path class="st0" d="M1304.1 311.2l22-25-22-25"/><path class="st0" d="M1322.1 311.2l22-25-22-25M1344.1 311.2l22-25-22-25"/><path class="st0" d="M1362.1 311.2l22-25-22-25M1384.1 311.2l22-25-22-25"/><path class="st0" d="M1402.1 311.2l22-25-22-25M1424.1 311.2l22-25-22-25"/><path class="st0" d="M1442.1 311.2l22-25-22-25"/></g></svg>
