<svg id="Layer_1" xmlns="http://www.w3.org/2000/svg" viewBox="0 0 62 60"><style>.st0{fill:#738BD7;} .st1{fill:none;stroke:#9CB4F7;stroke-width:2.2676;stroke-linecap:round;stroke-linejoin:round;stroke-miterlimit:10;} .st2{fill:none;stroke:#9CB4F7;stroke-width:2;stroke-linecap:round;stroke-linejoin:round;stroke-miterlimit:10;}</style><path class="st0" d="M49 18v30.9c0 4.7-3.8 8.5-8.5 8.5h-19c-4.7 0-8.5-3.8-8.5-8.5V18"/><path class="st1" d="M49 18v30.9c0 4.7-3.8 8.5-8.5 8.5h-19c-4.7 0-8.5-3.8-8.5-8.5V18"/><path class="st0" d="M50.7 44.7H11.3c-5.5 0-9.3-5.4-7.5-10.6l5.7-16.3C12.7 8.7 21.3 2.5 31 2.5s18.3 6.1 21.5 15.3l5.7 16.3c1.8 5.2-2 10.6-7.5 10.6z"/><path class="st2" d="M50.7 44.7H11.3c-5.5 0-9.3-5.4-7.5-10.6l5.7-16.3C12.7 8.7 21.3 2.5 31 2.5s18.3 6.1 21.5 15.3l5.7 16.3c1.8 5.2-2 10.6-7.5 10.6z"/><path class="st2" d="M25.3 3.3c3.5 3.3 5.7 8.1 5.7 13.3 0 10.1-8.2 18.3-18.3 18.3-3 0-5.9-.7-8.5-2.1M50.3 15.5c-6 .3-10.7 5.5-10.4 11.5.3 6.1 5.5 10.7 11.6 10.4 2.3-.1 4.4-.9 6.1-2.2"/><g><path class="st2" d="M23.5 45.3v4.3M38.5 45.3v4.3"/></g></svg>