<svg id="kirby_x5F_fg" xmlns="http://www.w3.org/2000/svg" xmlns:xlink="http://www.w3.org/1999/xlink" viewBox="0 0 1860 314"><style>.st0{fill:#738BD7;} .st1{fill:none;stroke:#9CB4F7;stroke-width:2;stroke-linecap:round;stroke-linejoin:round;stroke-miterlimit:10;} .st2{clip-path:url(#SVGID_2_);} .st3{fill:#7C93E4;} .st4{fill:none;stroke:#7C93E4;stroke-width:2;stroke-linecap:round;stroke-linejoin:round;stroke-miterlimit:10;}</style><ellipse class="st0" cx="584.3" cy="198.9" rx="6" ry="12"/><path class="st0" d="M584.3 186.9l48.8-4v32l-48.8-4"/><path class="st0" d="M600.7 85.1h125v230h-125z"/><ellipse class="st1" cx="584.3" cy="198.9" rx="6" ry="12"/><path class="st1" d="M637.4 209.9c-1.1 3.1-2.6 5-4.3 5M639 197.4v1.5M633.1 182.9c2.5 0 4.6 3.9 5.5 9.6M584.3 210.9l48.8 4M584.3 186.9l48.8-4M600.7 184.9v-66.1M600.7 212.9V311M725.7 110.8V311M622.1 165.4c-5.4 0-9.9-4.4-9.9-9.9v-14.3c0-5.4 4.4-9.9 9.9-9.9 5.4 0 9.9 4.4 9.9 9.9v14.3c0 5.4-4.4 9.9-9.9 9.9z"/><path class="st1" d="M624.1 164.6c-3.5-1.5-6-5-6-9.1v-14.3c0-4.4 2.9-8.2 7-9.4M657 165.4c-5.4 0-9.9-4.4-9.9-9.9v-14.3c0-5.4 4.4-9.9 9.9-9.9 5.4 0 9.9 4.4 9.9 9.9v14.3c-.1 5.4-4.5 9.9-9.9 9.9z"/><path class="st1" d="M659 164.6c-3.5-1.5-6-5-6-9.1v-14.3c0-4.4 2.9-8.2 7-9.4M635.2 267.4c-5.4 0-9.9-4.4-9.9-9.9v-17.3c0-5.4 4.4-9.9 9.9-9.9 5.4 0 9.9 4.4 9.9 9.9v17.3c0 5.5-4.4 9.9-9.9 9.9z"/><path class="st1" d="M637.2 266.7c-3.5-1.5-6-5-6-9.1v-17.3c0-4.4 2.9-8.2 7-9.4"/><path class="st0" d="M443.9 58.5c-.2 1.5-.3 3-.3 4.6 0 20.9 16.3 38.1 36.9 39.3 3 24.7 24.1 43.8 49.6 43.8 20.2 0 37.6-12 45.5-29.3 4.5 1.8 9.5 2.8 14.7 2.8 14.3 0 26.9-7.6 33.8-19.1 3.4 1.2 7.1 1.8 11 1.8 9.8 0 18.7-4.2 24.9-10.9 7.8 12.8 21.9 21.4 38 21.4 9 0 17.3-2.7 24.3-7.2 7.4 14.4 22.3 24.2 39.6 24.2 16.7 0 31.3-9.2 38.9-22.8 2.1.3 4.2.5 6.3.5 24.6 0 44.5-19.9 44.5-44.5 0-1.6-.1-3.1-.2-4.6"/><path class="st1" d="M443.9 58.5c-.2 1.5-.3 3-.3 4.6 0 20.9 16.3 38.1 36.9 39.3 3 24.7 24.1 43.8 49.6 43.8 20.2 0 37.6-12 45.5-29.3 4.5 1.8 9.5 2.8 14.7 2.8 14.3 0 26.9-7.6 33.8-19.1 3.4 1.2 7.1 1.8 11 1.8 9.8 0 18.7-4.2 24.9-10.9 7.8 12.8 21.9 21.4 38 21.4 9 0 17.3-2.7 24.3-7.2 7.4 14.4 22.3 24.2 39.6 24.2 16.7 0 31.3-9.2 38.9-22.8 2.1.3 4.2.5 6.3.5 24.6 0 44.5-19.9 44.5-44.5 0-1.6-.1-3.1-.2-4.6"/><path class="st0" d="M722.7 125.4c-8-3.2-8-16.5 0-19.7 8 3.2 8 16.5 0 19.7z"/><path class="st1" d="M722.7 125.4c-8-3.2-8-16.5 0-19.7 8 3.2 8 16.5 0 19.7z"/><path class="st0" d="M712.3 122c-4.9-7.1 2.4-18.2 10.9-16.5 4.9 7.1-2.5 18.3-10.9 16.5z"/><path class="st1" d="M712.3 122c-4.9-7.1 2.4-18.2 10.9-16.5 4.9 7.1-2.5 18.3-10.9 16.5z"/><path class="st0" d="M491.6 140.6c-6.4-5.8-1.7-18.3 6.9-18.5 6.4 5.8 1.7 18.3-6.9 18.5z"/><path class="st1" d="M491.6 140.6c-6.4-5.8-1.7-18.3 6.9-18.5 6.4 5.8 1.7 18.3-6.9 18.5z"/><path class="st0" d="M568.1 86.6c-7.7 3.8-17.7-5.1-14.7-13.1 7.7-3.9 17.7 5 14.7 13.1z"/><path class="st1" d="M568.1 86.6c-7.7 3.8-17.7-5.1-14.7-13.1 7.7-3.9 17.7 5 14.7 13.1z"/><path class="st0" d="M547.8 91.9c-6.6-5.5-2.4-18.2 6.2-18.7 6.6 5.5 2.4 18.2-6.2 18.7z"/><path class="st1" d="M547.8 91.9c-6.6-5.5-2.4-18.2 6.2-18.7 6.6 5.5 2.4 18.2-6.2 18.7z"/><path class="st0" d="M227.6 261.5V311h-8.7v-49.5"/><path class="st1" d="M227.6 261.5V311h-8.7v-49.5"/><path class="st0" d="M241.5 264H205l5.5-15.9c1.9-5.4 7-9 12.7-9 5.7 0 10.8 3.6 12.7 9l5.6 15.9zM174.8 286.9V311h-19.6v-24.1"/><path class="st1" d="M174.8 286.9V311h-19.6v-24.1"/><path class="st0" d="M197.1 291.6H133c-1.3 0-2.1-1.3-1.6-2.5l7.9-17.3c4.6-10.1 14.7-16.6 25.8-16.6 11.1 0 21.2 6.5 25.8 16.6l7.9 17.3c.4 1.1-.4 2.5-1.7 2.5z"/><path class="st1" d="M197.1 291.6H133c-1.3 0-2.1-1.3-1.6-2.5l7.9-17.3c4.6-10.1 14.7-16.6 25.8-16.6 11.1 0 21.2 6.5 25.8 16.6l7.9 17.3c.4 1.1-.4 2.5-1.7 2.5z"/><path class="st1" d="M149.5 259.8c2.9 2.5 4.7 6.2 4.7 10.4 0 7.6-6.1 13.7-13.7 13.7-2.2 0-4.3-.5-6.1-1.4M178.7 259.2c-1.2 1.7-3.1 2.8-5.3 2.8-3.6 0-6.4-2.9-6.4-6.4M167.3 291.6c-.3-1.2-.4-2.5-.4-3.8 0-9.7 7.9-17.6 17.6-17.6 2.1 0 4.2.4 6.1 1.1"/><g><path class="st0" d="M1674.8 286.9V311h-19.5v-24.1"/><path class="st1" d="M1674.8 286.9V311h-19.5v-24.1"/><g><path class="st0" d="M1697.1 291.6H1633c-1.3 0-2.1-1.3-1.6-2.5l7.9-17.3c4.6-10.1 14.7-16.6 25.8-16.6 11.1 0 21.2 6.5 25.8 16.6l7.9 17.3c.5 1.1-.4 2.5-1.7 2.5z"/><path class="st1" d="M1697.1 291.6H1633c-1.3 0-2.1-1.3-1.6-2.5l7.9-17.3c4.6-10.1 14.7-16.6 25.8-16.6 11.1 0 21.2 6.5 25.8 16.6l7.9 17.3c.5 1.1-.4 2.5-1.7 2.5z"/><path class="st1" d="M1649.5 259.8c2.9 2.5 4.7 6.2 4.7 10.4 0 7.6-6.1 13.7-13.7 13.7-2.2 0-4.3-.5-6.1-1.4M1678.7 259.2c-1.2 1.7-3.1 2.8-5.3 2.8-3.6 0-6.4-2.9-6.4-6.4M1667.4 291.6c-.3-1.2-.4-2.5-.4-3.8 0-9.7 7.9-17.6 17.6-17.6 2.1 0 4.2.4 6.1 1.1"/></g></g><g><path class="st0" d="M943.6 317.9c0 6.9-18.2 12.5-40.5 12.5s-40.5-5.6-40.5-12.5v-48.8h81.1l-.1 48.8z"/><defs><path id="SVGID_1_" d="M943.6 311.7c0 6.9-18.2 12.5-40.5 12.5s-40.5-5.6-40.5-12.5v-42.5h81.1l-.1 42.5z"/></defs><clipPath id="SVGID_2_"><use xlink:href="#SVGID_1_" overflow="visible"/></clipPath><g class="st2"><path class="st3" d="M868 311.1v-22.9c0-.5-.4-1-1-1s-1 .4-1 1v22.9h2zM874 311.1c-.1-.8-.2-1.6-.2-2.5v-10.9c.9 2 2.2 3.8 3.8 5.4 2.2 2.2 3.8 5 4.6 8h2c-.8-3.5-2.6-6.7-5.2-9.3-3.3-3.3-5.2-7.8-5.2-12.5v-28.5c0-.5-.4-1-1-1s-1 .4-1 1v47.8c0 .8.1 1.7.2 2.5h2zM887.7 259.8c-.5 0-1 .4-1 1v6.4c0 2.1-1.7 3.7-3.7 3.7-2.1 0-3.7-1.7-3.7-3.7v-6.4c0-.5-.4-1-1-1s-1 .4-1 1v6.4c0 3.1 2.5 5.7 5.7 5.7 3.1 0 5.7-2.5 5.7-5.7v-6.4c-.1-.5-.5-1-1-1zM892.5 259.8c-.5 0-1 .4-1 1v4.3c0 .5.4 1 1 1s1-.4 1-1v-4.3c0-.5-.5-1-1-1zM850.9 315.5c.2.1.3.2.5.2.6 0 1.2.2 1.6.6h2.4c-.1-.3-.3-.5-.5-.8h-4zM850.1 311.1c.9-.9 2.1-1.5 3.4-1.5 1.4 0 2.6.6 3.4 1.5h2.4c-1.1-2.1-3.3-3.5-5.8-3.5s-4.7 1.4-5.8 3.5h2.4zM844.7 311.1v-35.3c0-.5-.4-1-1-1s-1 .4-1 1v35.3h2zM860.6 259.8c-.5 0-1 .4-1 1v35.8c0 2.9-2.3 5.2-5.2 5.2s-5.2-2.3-5.2-5.2v-32.2c0-.5-.4-1-1-1s-1 .4-1 1v32.2c0 3.9 3.2 7.1 7.1 7.1s7.1-3.2 7.1-7.1v-35.8c.1-.5-.3-1-.8-1z"/><path class="st3" d="M854.4 297.5c1.6 0 2.9-1.3 2.9-2.9v-18.4c0-.5-.4-1-1-1s-1 .4-1 1v18.4c0 .5-.4.9-.9.9s-.9-.4-.9-.9v-33.8c0-.5-.4-1-1-1s-1 .4-1 1v33.8c0 1.6 1.3 2.9 2.9 2.9zM867 259.8c-.5 0-1 .4-1 1v22c0 .5.4 1 1 1 .5 0 1-.4 1-1v-22c0-.5-.5-1-1-1zM843.7 271.6c.5 0 1-.4 1-1v-9.9c0-.5-.4-1-1-1s-1 .4-1 1v9.9c.1.6.5 1 1 1z"/><path class="st3" d="M856.3 269c.5 0 1-.4 1-1v-7.2c0-.5-.4-1-1-1s-1 .4-1 1v7.2c0 .5.5 1 1 1zM836.8 259.8c-.5 0-1 .4-1 1v33.1c0 .5.4 1 1 1 .5 0 1-.4 1-1v-33.1c-.1-.5-.5-1-1-1zM837.7 311.1v-11.9c0-.5-.4-1-1-1s-1 .4-1 1v11.9h2zM832.9 311.1v-50.3c0-.5-.4-1-1-1s-1 .4-1 1v50.3h2zM893.5 311.1v-39.2c0-.5-.4-1-1-1s-1 .4-1 1v39.2h2zM883 276.4c-3.1 0-5.7 2.5-5.7 5.7v8.2c0 3.1 2.5 5.7 5.7 5.7 3.1 0 5.7-2.5 5.7-5.7v-3.9-.2-4.2c-.1-3.1-2.6-5.6-5.7-5.6zm0 1.9c2.1 0 3.7 1.7 3.7 3.7v.1c-1-.9-2.3-1.4-3.7-1.4s-2.7.6-3.7 1.4v-.1c0-2 1.6-3.7 3.7-3.7zm3.7 7.8c-.1 2-1.7 3.5-3.7 3.5s-3.6-1.6-3.7-3.5c.1-2 1.7-3.5 3.7-3.5s3.6 1.5 3.7 3.5zm-3.7 7.8c-2.1 0-3.7-1.7-3.7-3.7v-.1c1 .9 2.3 1.4 3.7 1.4s2.7-.6 3.7-1.4v.1c0 2-1.7 3.7-3.7 3.7zM898.9 311.1v-7c0-.5-.4-1-1-1s-1 .4-1 1v7h2zM898 259.8c-.5 0-1 .4-1 1v33.1c0 .5.4 1 1 1s1-.4 1-1v-33.1c-.1-.5-.5-1-1-1zM902.8 259.8c-.5 0-1 .4-1 1v25.1c0 .5.4 1 1 1s1-.4 1-1v-25.1c0-.5-.5-1-1-1zM903.8 311.1v-18.6c0-.5-.4-1-1-1s-1 .4-1 1v18.6h2zM887.7 298.7c-.5 0-1 .4-1 1v3.5c0 .5.4 1 1 1s1-.4 1-1v-3.5c-.1-.6-.5-1-1-1zM909.2 259.8c-.5 0-1 .4-1 1v38.9c0 .5.4 1 1 1s1-.4 1-1v-38.9c-.1-.5-.5-1-1-1zM910.1 311.1v-5.4c0-.5-.4-1-1-1s-1 .4-1 1v5.4h2zM914.1 275c.1 0 .2.1.4.1h.4c.1 0 .2-.1.3-.2 3.7-3.7 5.8-8.7 5.8-13.9V260.7c-.1-.4-.5-.6-.9-.6-.3 0-.5.1-.7.3-3.7 3.7-5.8 8.7-5.8 13.9-.1.2.2.5.5.7zm1.6-3.9c.4-2.6 1.5-5.1 3-7.3-.4 2.6-1.4 5.1-3 7.3zM915.5 311.1v-11.7c0-4.8 1.8-9.2 5.2-12.6 1.6-1.6 2.9-3.5 3.8-5.5v14.4c0 4.8-1.8 9.2-5.2 12.6-.8.8-1.6 1.8-2.3 2.7h2.4c.4-.5.8-.9 1.2-1.4 1.6-1.6 2.9-3.5 3.8-5.5v4.8c0 .7 0 1.3-.1 2h1.9c.1-.7.1-1.3.1-2v-48.3c0-.5-.4-1-1-1s-1 .4-1 1v6.3c0 4.8-1.8 9.2-5.2 12.6-3.7 3.7-5.8 8.7-5.8 13.9v17.5h2.2v.2zm5.2-30c1.4-1.4 2.6-3 3.5-4.8-.7 3.5-2.3 6.7-4.9 9.2-1.4 1.4-2.6 3-3.5 4.8.6-3.5 2.3-6.7 4.9-9.2zM933.6 311.1V268c0-.5-.4-1-1-1-.5 0-1 .4-1 1v43.1h2zM940.1 311.1v-16.2c0-.5-.4-1-1-1s-1 .4-1 1v16.2h2zM939.1 259.8c-.5 0-1 .4-1 1v27c0 .5.4 1 1 1s1-.4 1-1v-27c0-.5-.4-1-1-1zM945.7 300.3c.5 0 1-.4 1-1V286c0-4.9 4-8.8 8.8-8.8 4.9 0 8.8 4 8.8 8.8v25.1h1.9V286c0-5.9-4.8-10.7-10.8-10.7-5.9 0-10.7 4.8-10.7 10.7v13.2c0 .6.5 1.1 1 1.1zM946.7 311.1v-5.9c0-.5-.4-1-1-1s-1 .4-1 1v5.9h2z"/><path class="st3" d="M950.8 311.1c-.1-.4-.2-.9-.2-1.3v-23c0-2.7 2.2-4.8 4.8-4.8s4.8 2.2 4.8 4.8v23c0 .5-.1.9-.2 1.3h2c.1-.4.1-.9.1-1.3v-23c0-3.7-3-6.8-6.8-6.8s-6.8 3-6.8 6.8v23c0 .5.1.9.1 1.3h2.2zM951.9 315.5c.5.3 1.1.6 1.7.8h3.7c.6-.2 1.2-.4 1.7-.8h-7.1z"/><path class="st3" d="M955.5 285.6c-1.5 0-2.7 1.2-2.7 2.7v20.2c0 1.5 1.2 2.7 2.7 2.7s2.7-1.2 2.7-2.7v-20.2c-.1-1.5-1.3-2.7-2.7-2.7zm.7 22.8c0 .4-.3.7-.7.7s-.7-.3-.7-.7v-20.2c0-.4.3-.7.7-.7s.7.3.7.7v20.2zM945.7 274.3c.5 0 1-.4 1-1v-12.5c0-.5-.4-1-1-1s-1 .4-1 1v12.5c0 .6.5 1 1 1zM949.7 268c.5 0 1-.4 1-1v-6.3c0-.5-.4-1-1-1s-1 .4-1 1v6.3c0 .6.4 1 1 1zM970.8 259.8c-.5 0-1 .4-1 1v4.3c0 3.6-2.9 6.5-6.5 6.5H961c-3.6 0-6.5-2.9-6.5-6.5v-4.3c0-.5-.4-1-1-1s-1 .4-1 1v4.3c0 4.6 3.8 8.4 8.4 8.4h2.3c4.6 0 8.4-3.8 8.4-8.4v-4.3c.2-.5-.2-1-.8-1z"/><path class="st3" d="M961.6 268.4h1.3c2.9 0 5.2-2.3 5.2-5.2v-2.4c0-.5-.4-1-1-1s-1 .4-1 1v2.4c0 1.8-1.5 3.3-3.3 3.3h-1.3c-1.8 0-3.3-1.5-3.3-3.3v-2.4c0-.5-.4-1-1-1s-1 .4-1 1v2.4c.2 2.9 2.5 5.2 5.4 5.2zM971.8 311.1v-34.4c0-.5-.4-1-1-1s-1 .4-1 1v34.4h2zM978 311.1v-50.3c0-.5-.4-1-1-1s-1 .4-1 1v50.3h2zM983.6 311.1v-8.3c0-.5-.4-1-1-1s-1 .4-1 1v8.3h2zM982.6 284.9c-.5 0-1 .4-1 1V298c0 .5.4 1 1 1s1-.4 1-1v-12.1c0-.5-.5-1-1-1zM982.6 259.8c-.5 0-1 .4-1 1v19.3c0 .5.4 1 1 1s1-.4 1-1v-19.3c0-.5-.5-1-1-1z"/></g><path class="st1" d="M943.6 310.4v-41.2h-81.1v41.2"/><ellipse class="st0" cx="903.1" cy="269.2" rx="40.5" ry="12.5"/><ellipse class="st4" cx="903.1" cy="269.2" rx="24.6" ry="5.5"/><ellipse class="st1" cx="903.1" cy="269.2" rx="40.5" ry="12.5"/></g><g><path class="st0" d="M248.9 280.9V311H242v-30.1"/><path class="st1" d="M248.9 280.9V311H242v-30.1"/><path class="st0" d="M248.9 280.9V311H242v-30.1"/><path class="st1" d="M248.9 280.9V311H242v-30.1"/><g><path class="st0" d="M256.9 300.6h-22.8l4.2-19.2c.7-3.4 3.7-5.8 7.2-5.8s6.5 2.4 7.2 5.8l4.2 19.2z"/><path class="st1" d="M256.9 300.6h-22.8l4.2-19.2c.7-3.4 3.7-5.8 7.2-5.8s6.5 2.4 7.2 5.8l4.2 19.2z"/><path class="st0" d="M256.9 300.6h-22.8l4.2-19.2c.7-3.4 3.7-5.8 7.2-5.8s6.5 2.4 7.2 5.8l4.2 19.2z"/><path class="st1" d="M256.9 300.6h-22.8l4.2-19.2c.7-3.4 3.7-5.8 7.2-5.8s6.5 2.4 7.2 5.8l4.2 19.2z"/></g></g><g><path class="st0" d="M788.5 288.1V311h-5.2v-22.9"/><path class="st1" d="M788.5 288.1V311h-5.2v-22.9"/><path class="st0" d="M788.5 288.1V311h-5.2v-22.9"/><path class="st1" d="M788.5 288.1V311h-5.2v-22.9"/><g><path class="st0" d="M794.6 303.1h-17.3l3.2-14.6c.6-2.6 2.9-4.4 5.5-4.4s4.9 1.8 5.5 4.4l3.1 14.6z"/><path class="st1" d="M794.6 303.1h-17.3l3.2-14.6c.6-2.6 2.9-4.4 5.5-4.4s4.9 1.8 5.5 4.4l3.1 14.6z"/><path class="st0" d="M794.6 303.1h-17.3l3.2-14.6c.6-2.6 2.9-4.4 5.5-4.4s4.9 1.8 5.5 4.4l3.1 14.6z"/><path class="st1" d="M794.6 303.1h-17.3l3.2-14.6c.6-2.6 2.9-4.4 5.5-4.4s4.9 1.8 5.5 4.4l3.1 14.6z"/></g></g><g><path class="st0" d="M1588.3 283.2V311h-6.4V283.2"/><path class="st1" d="M1588.3 283.2V311h-6.4V283.2"/><path class="st0" d="M1588.3 283.2V311h-6.4V283.2"/><path class="st1" d="M1588.3 283.2V311h-6.4V283.2"/><g><path class="st0" d="M1595.6 301.4h-21.1l3.9-17.7c.7-3.1 3.5-5.4 6.7-5.4s6 2.2 6.7 5.4l3.8 17.7z"/><path class="st1" d="M1595.6 301.4h-21.1l3.9-17.7c.7-3.1 3.5-5.4 6.7-5.4s6 2.2 6.7 5.4l3.8 17.7z"/><path class="st0" d="M1595.6 301.4h-21.1l3.9-17.7c.7-3.1 3.5-5.4 6.7-5.4s6 2.2 6.7 5.4l3.8 17.7z"/><path class="st1" d="M1595.6 301.4h-21.1l3.9-17.7c.7-3.1 3.5-5.4 6.7-5.4s6 2.2 6.7 5.4l3.8 17.7z"/></g></g><g><path class="st0" d="M1576.6 292.9V311h-4.2v-18.1"/><path class="st1" d="M1576.6 292.9V311h-4.2v-18.1"/><path class="st0" d="M1576.6 292.9V311h-4.2v-18.1"/><path class="st1" d="M1576.6 292.9V311h-4.2v-18.1"/><g><path class="st0" d="M1581.4 304.7h-13.7l2.5-11.5c.4-2 2.3-3.5 4.4-3.5 2.1 0 3.9 1.5 4.4 3.5l2.4 11.5z"/><path class="st1" d="M1581.4 304.7h-13.7l2.5-11.5c.4-2 2.3-3.5 4.4-3.5 2.1 0 3.9 1.5 4.4 3.5l2.4 11.5z"/><path class="st0" d="M1581.4 304.7h-13.7l2.5-11.5c.4-2 2.3-3.5 4.4-3.5 2.1 0 3.9 1.5 4.4 3.5l2.4 11.5z"/><path class="st1" d="M1581.4 304.7h-13.7l2.5-11.5c.4-2 2.3-3.5 4.4-3.5 2.1 0 3.9 1.5 4.4 3.5l2.4 11.5z"/></g></g><g><path class="st0" d="M1308 292.9V311h-4.1v-18.1"/><path class="st1" d="M1308 292.9V311h-4.1v-18.1"/><path class="st0" d="M1308 292.9V311h-4.1v-18.1"/><path class="st1" d="M1308 292.9V311h-4.1v-18.1"/><g><path class="st0" d="M1312.8 304.7h-13.7l2.5-11.5c.4-2 2.3-3.5 4.4-3.5 2.1 0 3.9 1.5 4.4 3.5l2.4 11.5z"/><path class="st1" d="M1312.8 304.7h-13.7l2.5-11.5c.4-2 2.3-3.5 4.4-3.5 2.1 0 3.9 1.5 4.4 3.5l2.4 11.5z"/><path class="st0" d="M1312.8 304.7h-13.7l2.5-11.5c.4-2 2.3-3.5 4.4-3.5 2.1 0 3.9 1.5 4.4 3.5l2.4 11.5z"/><path class="st1" d="M1312.8 304.7h-13.7l2.5-11.5c.4-2 2.3-3.5 4.4-3.5 2.1 0 3.9 1.5 4.4 3.5l2.4 11.5z"/></g></g><g><path class="st0" d="M1338.7 282.1V311h-5.3v-28.9"/><path class="st1" d="M1338.7 282.1V311h-5.3v-28.9"/><path class="st0" d="M1338.7 282.1V311h-5.3v-28.9"/><path class="st1" d="M1338.7 282.1V311h-5.3v-28.9"/><g><path class="st0" d="M1344.7 297.1h-17.3l3.2-14.6c.6-2.6 2.9-4.4 5.5-4.4s4.9 1.8 5.5 4.4l3.1 14.6z"/><path class="st1" d="M1344.7 297.1h-17.3l3.2-14.6c.6-2.6 2.9-4.4 5.5-4.4s4.9 1.8 5.5 4.4l3.1 14.6z"/><path class="st0" d="M1344.7 297.1h-17.3l3.2-14.6c.6-2.6 2.9-4.4 5.5-4.4s4.9 1.8 5.5 4.4l3.1 14.6z"/><path class="st1" d="M1344.7 297.1h-17.3l3.2-14.6c.6-2.6 2.9-4.4 5.5-4.4s4.9 1.8 5.5 4.4l3.1 14.6z"/></g></g><path class="st1" d="M241.5 264H205l5.5-15.9c1.9-5.4 7-9 12.7-9 5.7 0 10.8 3.6 12.7 9l5.6 15.9z"/><g><path class="st0" d="M1265.2 261.5V311h-28.1v-49.5"/><path class="st1" d="M1265.2 261.5V311h-28.1v-49.5"/><path class="st0" d="M1282.1 288.2h-61.8l9.4-26.9c3.2-9.1 11.8-15.3 21.5-15.3s18.3 6.1 21.5 15.3l9.4 26.9z"/><path class="st1" d="M1282.1 288.2h-61.8l9.4-26.9c3.2-9.1 11.8-15.3 21.5-15.3s18.3 6.1 21.5 15.3l9.4 26.9z"/><path class="st1" d="M1245.4 246.8c3.5 3.3 5.7 8.1 5.7 13.3 0 10.1-8.2 18.3-18.3 18.3-3 0-5.9-.7-8.5-2.1M1272.5 262c-6.1.3-10.7 5.5-10.4 11.6.3 6.1 5.5 10.7 11.6 10.4 2.3-.1 4.4-.9 6.1-2.2"/></g><g><path class="st0" d="M1711.9 280.3V311h-14V280.3"/><path class="st1" d="M1711.9 280.3V311h-14V280.3"/><path class="st0" d="M1724.1 296.9h-38.3l5.8-16.7c2-5.7 7.3-9.5 13.3-9.5 6 0 11.3 3.8 13.3 9.5l5.9 16.7z"/><path class="st1" d="M1724.1 296.9h-38.3l5.8-16.7c2-5.7 7.3-9.5 13.3-9.5 6 0 11.3 3.8 13.3 9.5l5.9 16.7z"/></g></svg>