<svg id="exhaust1_1_" xmlns="http://www.w3.org/2000/svg" viewBox="0 0 170 190"><style>.st0{fill:#D0D9EA;} .st1{fill:#EBEFF7;} .st2{fill:#DAE2ED;} .st3{fill:#B7C2CE;}</style><g id="exhaust1"><path class="st0" d="M58.772 108.737l18.43 10.48-5.982 10.518-18.43-10.48z"/><path class="st1" d="M54 123.7l-47.2-22c-.9-.4-1.6-1.3-1.7-2.3-.3-2.1-.2-6.4 3.2-12.4 3.4-6.1 7-8.3 9-9.1.9-.4 2-.2 2.8.3l43 29.3c1.3.9 1.7 2.6.9 4l-6.2 11c-.6 1.3-2.3 1.9-3.8 1.2z"/><path class="st2" d="M88.2 142.9l-21.1-12c-.7-.4-1-1.3-.6-2.1l7.5-13.2c.4-.7 1.3-1 2.1-.6l21.1 12-9 15.9z"/><ellipse transform="rotate(-60.376 53.156 107.8)" class="st3" cx="53.2" cy="107.8" rx="1.9" ry="1.9"/><ellipse transform="rotate(-60.376 44.113 101.628)" class="st3" cx="44.1" cy="101.6" rx="1.9" ry="1.9"/></g></svg>