<svg id="frame_x5F_go" xmlns="http://www.w3.org/2000/svg" viewBox="0 0 170 190"><style>.st0{fill:#FF7B78;} .st1{fill:#2F3849;} .st2{fill:#B7C2CE;} .st3{fill:#EF8843;} .st4{fill:none;stroke:#E4E9F7;stroke-width:5.0976;stroke-linecap:round;stroke-linejoin:round;stroke-miterlimit:10;} .st5{fill:#FC964B;} .st6{fill:#DAE2ED;} .st7{fill:#8BA4E8;}</style><g id="frame_3_"><path class="st0" d="M58.8 147.4H42.3c-1.4 0-2.5-1.1-2.5-2.5V136c0-1.4 1.1-2.5 2.5-2.5h16.6c1.4 0 2.5 1.1 2.5 2.5v8.9c0 1.4-1.2 2.5-2.6 2.5z"/><path class="st1" d="M57.3 95.5h65.4v36.6H57.3z"/><path class="st2" d="M82.1 152.5H51.5c-4.2 0-7.6-3.4-7.6-7.6v-15.3l38.2 8.9v14z"/><path class="st3" d="M149 171.6c-7.8 0-26.5-20.8-36.9-34.3.1-12.4 1.7-43.2 8.8-50.3 1-1 1.8-1.1 2.3-1.1.3 0 .6 0 .9.1 15.2 4.5 27.2 14.7 33.6 28.8 8.1 17.7 5.5 38.6-7 56-.4.6-.9.8-1.7.8z"/><path class="st4" d="M96.3 79.7h19.8c1.6 0 3 .9 3.5 2.4l13.5 33.5"/><path class="st5" d="M109.5 138.2s29.9-48.7 35.9-43.6c6 5.1 11.1 11.5 14.6 19.2 9.2 20 4.8 41.8-7.2 58.5-8.5 11.8-43.3-34.1-43.3-34.1z"/><path class="st6" d="M157 165.5c-1.6.6-3.8.8-6.8-.3-12-4.4-30.9-27.8-36.1-34.5-4.3 3.5-7.1 6.3-7.1 7.5v.9l.5.7c1 1.3 23.7 31.1 37.4 36.2 5.8 2.1 8.7-.5 10-2.2 3.6-5.1 3.7-9 2.1-8.3z"/><path class="st1" d="M61.6 117.8H50.4V87.2c0-2.1 1.7-3.8 3.8-3.8h3.5c2.1 0 3.8 1.7 3.8 3.8v30.6z"/><path class="st7" d="M100.7 76.8H84.4c-1.7 0-3.7.3-4.6-1.1-1-1.6-2.6-2.6-4.4-2.6h-1.3c-3 0-5.3 1.6-5.3 4.4v12c0 3.3 2.6 5.9 5.9 5.9h.1c2.3 0 4.2-1.3 5.3-3.3 1.9-3.6 5.7-6.1 10-6.1h9.8c2.1 0 4.5-1.9 4.9-3.9.7-2.9-1.4-5.3-4.1-5.3z"/></g></svg>