<svg id="kirby_x5F_bg" xmlns="http://www.w3.org/2000/svg" viewBox="0 0 1860 314"><style>.st0{fill:none;stroke:#7C93E4;stroke-width:2;stroke-linecap:round;stroke-linejoin:round;stroke-miterlimit:10;} .st1{fill:#738BD7;}</style><path class="st0" d="M253.4 136.2c11.8 15.1 30.2 24.8 50.8 24.8 19.2 0 36.5-8.4 48.3-21.8h.4c16.5 30.2 48.5 50.7 85.3 50.7 53.6 0 97.1-43.5 97.1-97.1 0-13.2-2.6-25.7-7.4-37.1M1071.4 172.6V311M928 143.6V311M985 138.6V309M712.7 55.6c3.5 38.7 36 68.9 75.6 68.9 5.2 0 10.2-.5 15.1-1.5 11.9 26.4 38.4 44.8 69.2 44.8 27 0 50.8-14.2 64.2-35.5 8.7 5.2 18.9 8.2 29.8 8.2 6.8 0 13.3-1.2 19.4-3.3 13.1 22.7 37.6 37.9 65.7 37.9 28.4 0 53.2-15.7 66.2-38.8 6.7 2.7 14 4.2 21.7 4.2 15.5 0 29.5-6.1 39.9-16 6.2 5.4 14 9 22.5 10.2 1.9.3 3.8.4 5.8.4 23.9 0 43.3-19.4 43.3-43.3 0-15.2-7.9-28.6-19.8-36.3M195.9 274.6V311M195.9 245.1v4.5M195.9 153.6V237M245.9 135.6V311M352 140.6V311M1457.1 151.8V311M1548.6 161v150M1429.1 140.6V311M311.4 161v150M409.7 186.1V311M294.8 161v150M514.1 153.8V311M569.1 56.6V311M1264.1 212.9V311M1264.1 162.6v38.7M1319.1 177.6V311M1585.1 166v145M1640.1 252.9V311M1640.1 244.3v3.3M1640.1 199.3v29.8M1781.1 164.2V311"/><path class="st1" d="M393.1 120.2c-6.6-5.5-2.4-18.2 6.2-18.7 6.6 5.5 2.4 18.2-6.2 18.7z"/><path class="st0" d="M393.1 120.2c-6.6-5.5-2.4-18.2 6.2-18.7 6.6 5.5 2.4 18.2-6.2 18.7z"/><path class="st1" d="M371.4 92.3c-1.8-8.4 9.4-15.8 16.4-10.9 1.8 8.4-9.4 15.8-16.4 10.9z"/><path class="st0" d="M371.4 92.3c-1.8-8.4 9.4-15.8 16.4-10.9 1.8 8.4-9.4 15.8-16.4 10.9z"/><path class="st1" d="M409.6 119c-8.5 1.3-15.3-10.2-10-17 8.5-1.3 15.3 10.2 10 17z"/><path class="st0" d="M409.6 119c-8.5 1.3-15.3-10.2-10-17 8.5-1.3 15.3 10.2 10 17z"/><path class="st1" d="M1173.3 141.7c-6.6-5.5-2.4-18.2 6.2-18.7 6.6 5.6 2.4 18.2-6.2 18.7z"/><path class="st0" d="M1173.3 141.7c-6.6-5.5-2.4-18.2 6.2-18.7 6.6 5.6 2.4 18.2-6.2 18.7z"/><path class="st1" d="M1189.9 140.6c-8.5 1.3-15.3-10.2-10-17 8.5-1.3 15.2 10.2 10 17z"/><path class="st0" d="M1189.9 140.6c-8.5 1.3-15.3-10.2-10-17 8.5-1.3 15.2 10.2 10 17zM310.8 102.3c3-6.9 4.7-14.5 4.7-22.5 0-8.3-1.8-16.2-5-23.3M69.8 56.6c-2 4.9-3 10.3-3 15.9 0 23.9 19.4 43.3 43.3 43.3 6 0 11.6-1.2 16.8-3.4 6.5 24.1 28.5 41.9 54.7 41.9 20.1 0 37.7-10.5 47.8-26.3 8.6 5.3 18.8 8.4 29.6 8.4 19.8 0 37.3-10.2 47.4-25.6M1340.4 53.6c-5.6 7.3-9 16.5-9 26.4 0 23.9 19.4 43.3 43.3 43.3 6.1 0 11.9-1.3 17.2-3.6 13.7 13.2 32.2 21.3 52.7 21.3 10.3 0 20.2-2.1 29.2-5.8 9.7 18.5 29.1 31.2 51.5 31.2 16.1 0 30.6-6.5 41.1-17.1 13.9 16.7 34.9 27.3 58.3 27.3 30.2 0 56.2-17.6 68.5-43.1.7 0 1.4.1 2.1.1 32.1 0 58.1-26 58.1-58.1 0-7.8-1.5-15.1-4.3-21.9"/><path class="st0" d="M1145 193.3c8.8 5.1 19 8 29.9 8 23.4 0 43.6-13.4 53.4-32.9 2.4.3 4.9.4 7.4.4 19.3 0 36.7-8.2 49-21.2 13.1 21.3 36.6 35.5 63.5 35.5 31.5 0 58.4-19.5 69.3-47.1M1071.4 196.3c2.4.3 4.9.5 7.4.5 18.9 0 35.4-10 44.6-25 2.6 4.3 5.6 8.3 9.2 11.8M1619.6 176.4c7.4 15.8 22.6 27.3 39.9 30.1 17 2.7 34.7-3 46.8-15.4 6.6-6.7 11.3-15.1 13.6-24.3 27 11.6 59.1 4.9 79.2-16.4 7-7.4 12-16.4 15-25.4 23-7 42-29 39-54-1-3-1-6-1-8-2-4-2-8-4.6-11.6"/><path class="st1" d="M1688.2 160.8c-8.6.4-14.1-11.8-8.1-18 8.6-.3 14.1 11.8 8.1 18z"/><path class="st0" d="M1688.2 160.8c-8.6.4-14.1-11.8-8.1-18 8.6-.3 14.1 11.8 8.1 18z"/><path class="st1" d="M1517.6 116.2c-8.6.4-14.1-11.8-8.1-18 8.6-.4 14.1 11.8 8.1 18z"/><path class="st0" d="M1517.6 116.2c-8.6.4-14.1-11.8-8.1-18 8.6-.4 14.1 11.8 8.1 18z"/><path class="st1" d="M1502.5 110.2c-5.5-6.7 1-18.3 9.6-17.2 5.4 6.7-1.1 18.3-9.6 17.2z"/><path class="st0" d="M1502.5 110.2c-5.5-6.7 1-18.3 9.6-17.2 5.4 6.7-1.1 18.3-9.6 17.2z"/><path class="st1" d="M1321.1 91.6c-5.5-6.7 1-18.3 9.6-17.2 5.4 6.7-1 18.3-9.6 17.2z"/><path class="st0" d="M1321.1 91.6c-5.5-6.7 1-18.3 9.6-17.2 5.4 6.7-1 18.3-9.6 17.2z"/><path class="st1" d="M1702.1 74.3c-6.6-5.5-2.4-18.2 6.2-18.7 6.6 5.5 2.4 18.2-6.2 18.7z"/><path class="st0" d="M1702.1 74.3c-6.6-5.5-2.4-18.2 6.2-18.7 6.6 5.5 2.4 18.2-6.2 18.7z"/><path class="st1" d="M1299 179c-3.4-7.9 6-17.4 13.9-14 3.4 7.9-6 17.4-13.9 14z"/><path class="st0" d="M1299 179c-3.4-7.9 6-17.4 13.9-14 3.4 7.9-6 17.4-13.9 14z"/><path class="st1" d="M956.1 75.9c-8.4 2.1-16.1-8.8-11.5-16 8.4-2.1 16.2 8.8 11.5 16z"/><path class="st0" d="M956.1 75.9c-8.4 2.1-16.1-8.8-11.5-16 8.4-2.1 16.2 8.8 11.5 16zM195.9 203.1l-26.1-26.2M311.4 227.3l25.1-25M352 176.9l-7.7-7.6M514.1 247.4l14.7-14.7M514.1 219.4l19.2-19.2M928 201.3l-35.6-35.5M985 209.9l18.6-18.6M984.1 183.5l-15-14.9M1319.1 216.3l17-17M1264.1 236l-16.9-17M1548.6 222.7l-49.4-49.4M1585.1 190.2l-15.1-15.1"/><g><path class="st0" d="M468.4 303.1v7.9M162.2 305.1l2 5.9M202.1 303.1l-3 7.9M1015.6 303.1l3 7.9M1176.4 304.1v6.9M1212.6 301.1l2 9.9M1229.6 305.1l-2 5.9M1396.1 306.1v4.9M1438.6 303.1l-2 7.9M1789.1 301.1l-1 9.9M1794.2 305.1l-2 5.9M1619.6 300.1l3 10.9M958.1 301.1l2 9.9M820.6 302.1l1 8.9M881.1 301.1l-2 9.9M825.7 305.1l-1 5.9M965.1 305.1l2 5.9M811.6 303.1v7.9M370.2 302.1l1 8.9M380.3 300.1l-2 10.9M443.7 307.1v3.9M431 305.1l2 5.9"/></g><path class="st0" d="M772.3 123.7V311M785.9 309.1v-167"/></svg>